<?xml version="1.0" encoding="UTF-8"?>
<!DOCTYPE svg PUBLIC "-//W3C//DTD SVG 1.1//EN" "http://www.w3.org/Graphics/SVG/1.1/DTD/svg11.dtd">
<!-- Creator: CorelDRAW X7 -->
<svg xmlns="http://www.w3.org/2000/svg" xml:space="preserve" width="361.244mm" height="270.933mm" version="1.1" style="shape-rendering:geometricPrecision; text-rendering:geometricPrecision; image-rendering:optimizeQuality; fill-rule:evenodd; clip-rule:evenodd"
viewBox="0 0 36124 27093"
 xmlns:xlink="http://www.w3.org/1999/xlink">
 <defs>
  <style type="text/css">
   <![CDATA[
    .fil0 {fill:url(#id0)}
   ]]>
  </style>
  <linearGradient id="id0" gradientUnits="userSpaceOnUse" x1="18289.6" y1="16117.4" x2="18289.6" y2="9594.91">
   <stop offset="0" style="stop-opacity:1; stop-color:black"/>
   <stop offset="1" style="stop-opacity:1; stop-color:red"/>
  </linearGradient>
 </defs>
 <g id="Layer_x0020_1">
  <metadata id="CorelCorpID_0Corel-Layer"/>
  <path class="fil0" d="M6548 6585l23483 0 0 9523 -11729 3020 -11754 -3028 0 -9515zm925 3000l21602 0 0 -2045 -21602 0 0 2045zm3522 -450l-233 0 -64 -198 -384 0 -63 198 -233 0 366 -1048c16,-37 34,-62 54,-76 20,-14 44,-21 73,-21 29,0 53,7 70,19 18,13 34,39 48,78l366 1048zm-349 -386l-135 -453 -141 453 276 0zm2299 48c0,109 -40,194 -119,255 -80,62 -181,93 -304,93 -98,0 -192,-27 -283,-81 -45,-28 -82,-67 -111,-118 -29,-51 -44,-109 -44,-174l203 -10c0,58 24,103 74,135 49,32 104,48 164,48 134,0 201,-47 201,-141 0,-77 -46,-123 -137,-137l-186 -19c-94,-14 -168,-47 -222,-100 -55,-52 -82,-128 -82,-227 0,-98 39,-180 117,-244 78,-64 177,-96 297,-96 119,0 216,30 288,90 73,61 110,139 110,234l-200 10c-18,-93 -81,-140 -188,-140 -65,0 -116,14 -153,42 -37,28 -56,61 -56,99 0,38 14,68 40,90 27,22 60,35 100,41l183 19c205,28 308,138 308,331zm1970 0c0,109 -40,194 -119,255 -80,62 -181,93 -304,93 -98,0 -192,-27 -283,-81 -45,-28 -82,-67 -111,-118 -29,-51 -44,-109 -44,-174l203 -10c0,58 25,103 74,135 49,32 104,48 164,48 134,0 201,-47 201,-141 0,-77 -46,-123 -137,-137l-186 -19c-94,-14 -167,-47 -222,-100 -55,-52 -82,-128 -82,-227 0,-98 39,-180 117,-244 78,-64 177,-96 297,-96 119,0 216,30 289,90 72,61 109,139 109,234l-200 10c-18,-93 -80,-140 -188,-140 -65,0 -116,14 -153,42 -37,28 -56,61 -56,99 0,38 14,68 41,90 26,22 60,35 99,41l184 19c204,28 307,138 307,331zm2037 -287l0 86c0,192 -36,332 -108,418 -73,87 -189,131 -348,131 -160,0 -276,-44 -347,-131 -71,-86 -107,-227 -107,-422l0 -84c0,-178 36,-310 109,-397 72,-87 187,-130 344,-130 157,0 272,43 346,131 74,88 111,221 111,398zm-223 82l0 -60c0,-103 -13,-185 -39,-246 -30,-71 -94,-106 -193,-106 -99,0 -164,35 -194,106 -25,58 -37,140 -37,246l0 60c0,138 19,231 58,279 15,21 37,38 66,53 30,14 65,21 106,21 42,0 77,-7 106,-21 29,-14 51,-31 67,-51 16,-20 29,-47 37,-80 15,-53 23,-120 23,-201zm2018 99l208 0c0,146 -37,258 -110,336 -73,79 -176,118 -308,118 -293,0 -439,-172 -439,-516l0 -97c0,-271 75,-441 225,-510 59,-28 130,-41 214,-41 122,0 221,33 298,100 76,67 115,164 115,290l-209 0c-12,-63 -33,-111 -63,-143 -30,-32 -77,-48 -141,-48 -76,0 -131,23 -168,71 -25,33 -40,90 -45,170 -2,26 -3,61 -3,105l0 99c0,124 17,208 51,253 36,45 91,67 165,67 75,0 126,-20 155,-62 28,-41 47,-105 55,-192zm1641 444l-224 0 0 -1145 224 0 0 1145zm2155 0l-233 0 -65 -198 -384 0 -63 198 -233 0 367 -1048c16,-37 34,-62 53,-76 20,-14 45,-21 74,-21 29,0 52,7 70,19 17,13 33,39 47,78l367 1048zm-349 -386l-135 -453 -142 453 277 0zm2271 -559l-308 0 0 945 -223 0 0 -945 -306 0 0 -200 837 0 0 200zm1947 945l-405 0c-129,0 -219,-22 -271,-67 -52,-44 -78,-123 -78,-235l0 -843 754 0 0 200 -530 0 0 268 371 0 -16 199 -355 0 0 160c0,45 10,76 30,93 20,17 57,26 111,26l389 0 0 199zm1411 -1034l133 186 218 69 -135 184 1 228 -217 -71 -217 71 2 -228 -136 -184 218 -69 133 -186zm-19226 0l133 186 217 69 -135 184 1 228 -216 -71 -217 71 1 -228 -135 -184 217 -69 134 -186zm1640 2391c-205,928 -930,4465 -1022,5323 -828,-206 -595,-148 -595,-1153 0,-468 9,-1709 -198,-447 -22,134 -163,1302 -242,1297 -2,0 -629,-205 -682,-220 -96,-1747 159,-3451 79,-5232 88,1 671,-9 652,18 -123,166 -19,400 -49,574 15,641 -16,1153 -18,1771 54,35 720,-2044 784,-2251 88,840 91,1689 173,2494 33,330 504,-2079 591,-2562 819,-1 548,-45 527,388zm359 321c195,-892 -302,-489 1094,-611 39,193 43,161 24,360 -2,17 59,174 62,191 292,1779 382,3459 723,5265 183,967 329,762 -391,610 -218,-45 -195,-249 -268,-514 -269,-975 -105,-725 -1189,-937 -498,-98 -217,-165 -434,534 -181,579 18,478 -542,279 -326,-116 -318,-38 -175,-633 396,-1649 814,-3255 1096,-4544zm523 1046c-125,805 -401,1550 -603,2340 312,49 623,98 935,145 -140,-814 -223,-1638 -284,-2462l-25 -186 -23 163zm4410 -1695c0,80 0,159 0,238 30,186 60,373 90,559 0,90 0,180 0,268 -6,24 -12,47 -19,70 39,503 78,1008 119,1514 -9,15 -16,32 -22,48 -17,11 -34,23 -50,35 -144,-29 -288,-57 -430,-85 -63,-7 -123,-13 -183,-19 -18,21 -33,41 -48,63 54,379 110,760 166,1143 97,551 194,1106 293,1666 24,180 47,361 71,541 -9,11 -15,22 -21,34 15,26 32,53 49,80 15,140 30,280 47,419 -4,46 -8,91 -12,137 19,38 40,77 62,116 17,187 37,375 56,562 -237,-65 -474,-131 -711,-197 -385,-1652 -614,-2919 -821,-4607 -187,-18 -373,-36 -560,-52 35,1103 139,2364 139,3438 0,253 -36,548 -54,804 -1035,-214 -798,-63 -856,-1098 -15,-262 -107,-94 -38,-295 92,-269 -74,-1076 -46,-1455 23,-307 -42,-240 9,-640 98,-775 104,-2366 114,-3201l1 -97c885,4 1770,8 2655,11zm-627 1704c-6,-95 -10,-189 -15,-283 5,-116 9,-232 15,-348 -432,-19 -865,-39 -1297,-59 34,258 75,355 -8,600 436,28 870,59 1305,90zm-2044 4658c0,-32 11,-4 0,0zm5804 -4678c-10,62 -19,124 -28,187 0,369 0,740 0,1109 -206,48 -413,64 -620,68 28,300 56,600 84,900 9,13 17,25 28,37 93,690 185,1384 278,2067 -6,44 -13,90 -19,135 77,593 157,1181 236,1766 -215,60 -428,24 -641,-35 -125,-848 -252,-1691 -375,-2524 -122,-827 -250,-1649 -373,-2462 -32,7 -64,14 -96,20 -76,-8 -151,-15 -224,-24 -37,-14 -74,-28 -110,-43 -26,14 -52,29 -78,43 9,363 22,727 30,1089 9,363 22,727 33,1090 -15,46 -28,92 -41,137 13,79 26,158 41,237 0,39 0,76 0,114 -9,29 -15,60 -22,89 13,120 28,241 43,363 -21,16 -43,33 -62,49 19,49 41,99 62,149 -23,122 -47,245 -69,367 0,211 0,422 0,634 7,94 13,189 20,284 -248,-67 -493,-134 -739,-202 6,-105 13,-211 22,-317 0,-563 0,-1125 0,-1688 0,-563 0,-1126 0,-1689 -28,-526 -56,-1052 -84,-1575 8,-306 17,-611 28,-916 0,-360 0,-721 0,-1081 4,-49 8,-100 12,-151 860,1 1719,2 2580,2 22,44 43,87 65,131 -9,40 -15,80 -22,120 0,492 0,986 0,1479 13,14 26,27 41,41zm-773 -270c-6,-82 -10,-166 -15,-249 -387,-17 -775,-34 -1163,-51 0,162 0,325 0,487 388,38 776,77 1163,114 5,-99 9,-200 15,-301zm2171 4282c-19,103 -39,208 -56,312 0,421 0,843 0,1264 -15,1 -28,2 -41,1 0,129 0,256 0,384 9,8 17,16 26,23 -295,83 -590,165 -885,248 -30,-163 -60,-326 -91,-491 13,-53 28,-108 44,-161 0,-231 0,-464 0,-697 -16,-619 -31,-1238 -44,-1857 9,-30 18,-59 28,-91 0,-325 0,-651 0,-976 -17,-33 -34,-66 -49,-100 13,-38 28,-76 43,-113 -9,-149 -15,-298 -22,-449 7,-236 13,-473 22,-710 6,-14 13,-29 22,-44 -16,-14 -31,-27 -44,-40 5,-75 9,-150 16,-227 12,-39 25,-79 40,-120 -19,-35 -38,-69 -56,-104 13,-68 28,-137 44,-205 0,-397 0,-794 0,-1191 15,-132 30,-264 47,-397 192,0 385,-1 579,-1 73,-10 149,-20 224,-32 32,416 65,831 97,1244 0,563 0,1128 0,1690 0,564 0,1128 0,1690 7,244 13,488 22,732 -7,129 -11,257 -15,386 15,11 32,22 49,32zm3000 981c-894,244 -1785,487 -2677,730 0,-792 0,-1584 0,-2377 0,-792 0,-1585 0,-2377 -28,-223 -56,-446 -84,-669 0,-280 0,-561 0,-841 11,-41 22,-82 35,-124 0,-369 0,-738 0,-1107 254,17 510,33 766,49 620,-2 1241,-3 1863,-5 0,724 0,1449 0,2173 0,725 0,1450 0,2174 15,397 32,793 47,1189 15,396 33,791 50,1185zm-808 -752c0,-515 0,-1029 0,-1544 0,-514 0,-1030 0,-1544 -23,-585 -47,-1172 -71,-1760 -17,-38 -32,-75 -47,-113 -358,14 -713,29 -1068,44 26,560 51,1120 77,1677 -15,32 -30,63 -43,94 13,46 28,90 43,135 -19,33 -38,65 -56,96 18,8 37,15 56,24 0,525 0,1050 0,1575 0,526 0,1052 0,1577 369,-86 739,-173 1109,-261zm1125 -246c-22,-37 -44,-75 -63,-114 15,-33 30,-67 47,-102 0,-395 0,-790 0,-1185 -25,-17 -51,-34 -75,-50 11,-18 22,-36 35,-53 0,-154 0,-310 0,-465 -18,-27 -35,-56 -50,-84 11,-84 24,-168 37,-253 0,-563 0,-1127 0,-1690 0,-563 0,-1128 0,-1691 885,-4 1770,-8 2655,-11 0,66 0,130 0,195 30,152 60,303 90,454 0,73 0,146 0,219 -6,20 -13,39 -19,58 39,407 78,812 118,1215 -8,14 -15,28 -21,42 -17,13 -35,26 -50,38 -144,5 -288,9 -430,13 -63,6 -123,12 -183,19 -18,21 -33,42 -48,64 54,313 110,625 166,936 97,437 196,869 295,1297 22,141 45,279 69,418 -9,13 -15,26 -22,37 16,16 33,31 50,46 15,108 32,215 50,322 -7,39 -11,79 -16,118 20,22 41,43 63,64 17,145 37,288 56,431 -237,65 -474,133 -711,198 -107,-344 -215,-693 -321,-1045 -34,-131 -66,-262 -99,-394 -49,-271 -101,-543 -148,-817 -48,-275 -97,-551 -145,-828 -34,-237 -68,-475 -103,-714 -179,19 -357,39 -536,58 17,319 36,639 54,957 17,319 36,636 56,953 0,241 0,483 0,723 6,198 13,396 21,594 -24,273 -47,546 -69,821 -228,75 -456,150 -685,226 -21,-21 -43,-43 -62,-65 -2,-51 -4,-102 -6,-153 0,-268 0,-535 0,-802zm1959 -4219c-6,-81 -11,-162 -15,-244 4,-100 9,-200 15,-302 -433,20 -865,39 -1296,59 13,88 26,176 41,264 0,62 0,125 0,186 -15,42 -28,85 -41,126 431,-30 863,-60 1296,-89zm-1959 5012c-3,4 -5,7 -7,10 0,-5 0,-11 0,-17 2,2 4,5 7,7zm5756 -2752c0,226 0,451 0,677 0,225 0,451 0,676 -907,252 -1813,501 -2720,752 -15,-22 -30,-45 -43,-69 0,-29 0,-58 0,-88 11,-53 21,-108 34,-161 0,-362 0,-727 0,-1090 0,-363 0,-727 0,-1090 9,-12 18,-24 28,-37 76,-1 153,-3 231,-5 155,-25 310,-50 467,-75 0,264 0,528 0,792 0,263 0,527 0,791 15,12 32,23 50,34 131,-31 262,-62 396,-94 15,-18 32,-37 49,-57 7,8 13,17 22,26 248,-59 495,-118 745,-178 -15,-81 -28,-163 -41,-245 0,-317 0,-634 0,-952 -407,-200 -814,-411 -1221,-634 -220,-146 -437,-297 -655,-453 -17,2 -34,4 -49,5 -17,-48 -35,-98 -50,-146 0,-98 0,-197 0,-296 -17,-220 -32,-440 -47,-661 0,-398 0,-797 0,-1195 629,-2 1258,-3 1889,-5 273,-10 547,-20 822,-30 0,296 0,592 0,887 0,296 0,592 0,886 -19,9 -38,18 -56,27 -135,6 -269,11 -402,17 -71,14 -140,28 -209,42 -15,-13 -30,-26 -43,-39 0,-350 0,-699 0,-1048 -30,-18 -61,-37 -91,-55 -71,-12 -140,-24 -209,-36 -41,1 -79,3 -118,4 -19,23 -39,46 -56,69 -259,9 -517,19 -775,30 0,131 0,263 0,394 13,173 28,344 43,516 489,306 980,595 1471,868 176,83 353,165 529,244 0,325 0,650 0,975 2,10 5,19 9,27zm-22159 -6874l22631 0 0 8768 -11303 2910 -11328 -2918 0 -8760z"/>
 </g>
</svg>
